# xmcd CD database file
#
# Track frame offsets:
#	150
#	17432
#	38375
#
# Disc length: 739 seconds
#
# Revision: 0
# Processed by: cddbd v1.5.1PL0 Copyright (c) Steve Scherf et al.
# Submitted via: CDex 1.50
#
DISCID=1002e103
DTITLE=ガレッジセール - 天下無敵のゴーヤーマン☆
DYEAR=2001
DGENRE=JPop
TTITLE0=天下無敵のゴーヤーマン☆
TTITLE1=天下無敵のゴーヤーマン☆(チャンプルー)
TTITLE2=天下無敵のゴーヤーマン☆(カラオケ)
EXTD=YEAR: 2001
EXTT0=
EXTT1=
EXTT2=
PLAYORDER=
